<mxfile host="Electron" agent="Mozilla/5.0 (Windows NT 10.0; Win64; x64) AppleWebKit/537.36 (KHTML, like Gecko) draw.io/24.7.8 Chrome/128.0.6613.36 Electron/32.0.1 Safari/537.36" version="24.7.8">
  <diagram name="Page-1" id="0drxzNmqqHt5yeECW6B3">
    <mxGraphModel dx="683" dy="398" grid="1" gridSize="10" guides="1" tooltips="1" connect="1" arrows="1" fold="1" page="1" pageScale="1" pageWidth="1100" pageHeight="850" math="0" shadow="0">
      <root>
        <mxCell id="0" />
        <mxCell id="1" parent="0" />
        <mxCell id="LD_RKNu__p31QmjTdJs5-1" value="Slave&lt;div&gt;SoC&lt;/div&gt;" style="rounded=0;whiteSpace=wrap;html=1;" parent="1" vertex="1">
          <mxGeometry x="200" y="70" width="80" height="190" as="geometry" />
        </mxCell>
        <mxCell id="LD_RKNu__p31QmjTdJs5-7" value="" style="endArrow=none;html=1;rounded=0;entryX=0.974;entryY=0.496;entryDx=0;entryDy=0;entryPerimeter=0;exitX=1;exitY=0.789;exitDx=0;exitDy=0;exitPerimeter=0;" parent="1" source="LD_RKNu__p31QmjTdJs5-1" target="LD_RKNu__p31QmjTdJs5-34" edge="1">
          <mxGeometry width="50" height="50" relative="1" as="geometry">
            <mxPoint x="310" y="220" as="sourcePoint" />
            <mxPoint x="470" y="220.4999999999999" as="targetPoint" />
          </mxGeometry>
        </mxCell>
        <mxCell id="LD_RKNu__p31QmjTdJs5-28" value="" style="pointerEvents=1;verticalLabelPosition=bottom;shadow=0;dashed=0;align=center;html=1;verticalAlign=top;shape=mxgraph.electrical.resistors.resistor_2;" parent="1" vertex="1">
          <mxGeometry x="320" y="105" width="60" height="10" as="geometry" />
        </mxCell>
        <mxCell id="LD_RKNu__p31QmjTdJs5-29" value="" style="verticalLabelPosition=bottom;shadow=0;dashed=0;align=center;html=1;verticalAlign=top;shape=mxgraph.electrical.transistors.npn_transistor_5;" parent="1" vertex="1">
          <mxGeometry x="371" y="80" width="40" height="60" as="geometry" />
        </mxCell>
        <mxCell id="LD_RKNu__p31QmjTdJs5-31" value="" style="endArrow=none;html=1;rounded=0;entryX=0;entryY=0.5;entryDx=0;entryDy=0;entryPerimeter=0;exitX=1;exitY=0.5;exitDx=0;exitDy=0;exitPerimeter=0;" parent="1" source="LD_RKNu__p31QmjTdJs5-28" target="LD_RKNu__p31QmjTdJs5-29" edge="1">
          <mxGeometry width="50" height="50" relative="1" as="geometry">
            <mxPoint x="311" y="100" as="sourcePoint" />
            <mxPoint x="361" y="50" as="targetPoint" />
          </mxGeometry>
        </mxCell>
        <mxCell id="LD_RKNu__p31QmjTdJs5-76" value="" style="edgeStyle=orthogonalEdgeStyle;rounded=0;orthogonalLoop=1;jettySize=auto;html=1;" parent="1" target="LD_RKNu__p31QmjTdJs5-72" edge="1">
          <mxGeometry relative="1" as="geometry">
            <mxPoint x="530" y="234.5" as="sourcePoint" />
          </mxGeometry>
        </mxCell>
        <mxCell id="LD_RKNu__p31QmjTdJs5-34" value="" style="pointerEvents=1;verticalLabelPosition=bottom;shadow=0;dashed=0;align=center;html=1;verticalAlign=top;shape=mxgraph.electrical.resistors.resistor_2;direction=south;" parent="1" vertex="1">
          <mxGeometry x="525" y="161.5" width="10" height="60" as="geometry" />
        </mxCell>
        <mxCell id="LD_RKNu__p31QmjTdJs5-35" value="" style="html=1;shape=mxgraph.electrical.electro-mechanical.singleSwitch;aspect=fixed;elSwitchState=off;direction=north;" parent="1" vertex="1">
          <mxGeometry x="560" y="81.25" width="13" height="48.75" as="geometry" />
        </mxCell>
        <mxCell id="LD_RKNu__p31QmjTdJs5-36" value="V&lt;sub&gt;dd&lt;/sub&gt;" style="verticalLabelPosition=top;verticalAlign=bottom;shape=mxgraph.electrical.signal_sources.vdd;shadow=0;dashed=0;align=center;strokeWidth=1;fontSize=24;html=1;flipV=1;noLabel=1;" parent="1" vertex="1">
          <mxGeometry x="560" y="69" width="20" height="12" as="geometry" />
        </mxCell>
        <mxCell id="LD_RKNu__p31QmjTdJs5-37" value="V&lt;sub&gt;dd2&lt;/sub&gt;" style="text;html=1;align=center;verticalAlign=middle;resizable=0;points=[];autosize=1;strokeColor=none;fillColor=none;" parent="1" vertex="1">
          <mxGeometry x="545" y="44.25" width="50" height="30" as="geometry" />
        </mxCell>
        <mxCell id="LD_RKNu__p31QmjTdJs5-39" value="" style="endArrow=none;html=1;rounded=0;exitX=1;exitY=0.786;exitDx=0;exitDy=0;exitPerimeter=0;entryX=0;entryY=0.5;entryDx=0;entryDy=0;" parent="1" edge="1">
          <mxGeometry width="50" height="50" relative="1" as="geometry">
            <mxPoint x="280" y="109.88" as="sourcePoint" />
            <mxPoint x="320" y="109.88" as="targetPoint" />
          </mxGeometry>
        </mxCell>
        <mxCell id="LD_RKNu__p31QmjTdJs5-46" value="" style="pointerEvents=1;fillColor=strokeColor;verticalLabelPosition=bottom;shadow=0;dashed=0;align=center;html=1;verticalAlign=top;shape=mxgraph.electrical.diodes.diode;direction=north;" parent="1" vertex="1">
          <mxGeometry x="460" y="87.5" width="20" height="35" as="geometry" />
        </mxCell>
        <mxCell id="LD_RKNu__p31QmjTdJs5-47" value="" style="pointerEvents=1;verticalLabelPosition=bottom;shadow=0;dashed=0;align=center;html=1;verticalAlign=top;shape=mxgraph.electrical.inductors.inductor_3;direction=south;" parent="1" vertex="1">
          <mxGeometry x="530" y="80" width="10" height="50" as="geometry" />
        </mxCell>
        <mxCell id="LD_RKNu__p31QmjTdJs5-48" value="" style="endArrow=none;html=1;rounded=0;entryX=1;entryY=1;entryDx=0;entryDy=0;entryPerimeter=0;exitX=0;exitY=0.5;exitDx=0;exitDy=0;exitPerimeter=0;" parent="1" source="LD_RKNu__p31QmjTdJs5-46" target="LD_RKNu__p31QmjTdJs5-47" edge="1">
          <mxGeometry width="50" height="50" relative="1" as="geometry">
            <mxPoint x="470" y="130" as="sourcePoint" />
            <mxPoint x="510" y="130" as="targetPoint" />
            <Array as="points">
              <mxPoint x="470" y="130" />
            </Array>
          </mxGeometry>
        </mxCell>
        <mxCell id="LD_RKNu__p31QmjTdJs5-49" value="" style="endArrow=none;html=1;rounded=0;exitX=1;exitY=0.5;exitDx=0;exitDy=0;exitPerimeter=0;" parent="1" source="LD_RKNu__p31QmjTdJs5-46" edge="1">
          <mxGeometry width="50" height="50" relative="1" as="geometry">
            <mxPoint x="290" y="10" as="sourcePoint" />
            <mxPoint x="470" y="80" as="targetPoint" />
          </mxGeometry>
        </mxCell>
        <mxCell id="LD_RKNu__p31QmjTdJs5-50" value="V&lt;sub&gt;dd&lt;/sub&gt;" style="verticalLabelPosition=top;verticalAlign=bottom;shape=mxgraph.electrical.signal_sources.vdd;shadow=0;dashed=0;align=center;strokeWidth=1;fontSize=24;html=1;flipV=1;noLabel=1;" parent="1" vertex="1">
          <mxGeometry x="492" y="68" width="16" height="12" as="geometry" />
        </mxCell>
        <mxCell id="LD_RKNu__p31QmjTdJs5-51" value="" style="endArrow=none;html=1;rounded=0;entryX=0;entryY=1;entryDx=0;entryDy=0;entryPerimeter=0;" parent="1" target="LD_RKNu__p31QmjTdJs5-47" edge="1">
          <mxGeometry width="50" height="50" relative="1" as="geometry">
            <mxPoint x="470" y="80" as="sourcePoint" />
            <mxPoint x="340" y="60" as="targetPoint" />
          </mxGeometry>
        </mxCell>
        <mxCell id="LD_RKNu__p31QmjTdJs5-52" value="" style="endArrow=none;html=1;rounded=0;exitX=1;exitY=0;exitDx=0;exitDy=0;exitPerimeter=0;" parent="1" edge="1">
          <mxGeometry width="50" height="50" relative="1" as="geometry">
            <mxPoint x="410" y="80" as="sourcePoint" />
            <mxPoint x="470" y="130" as="targetPoint" />
            <Array as="points">
              <mxPoint x="440" y="80" />
              <mxPoint x="440" y="130" />
            </Array>
          </mxGeometry>
        </mxCell>
        <mxCell id="LD_RKNu__p31QmjTdJs5-53" value="V&lt;sub&gt;dd&lt;/sub&gt;" style="text;html=1;align=center;verticalAlign=middle;resizable=1;points=[];autosize=1;strokeColor=none;fillColor=none;strokeWidth=1;" parent="1" vertex="1">
          <mxGeometry x="480" y="49.25" width="40" height="20" as="geometry" />
        </mxCell>
        <mxCell id="LD_RKNu__p31QmjTdJs5-55" value="GND" style="text;html=1;align=center;verticalAlign=middle;resizable=0;points=[];autosize=1;strokeColor=none;fillColor=none;" parent="1" vertex="1">
          <mxGeometry x="406" y="145" width="50" height="30" as="geometry" />
        </mxCell>
        <mxCell id="LD_RKNu__p31QmjTdJs5-60" value="P&lt;span style=&quot;font-size: 10px;&quot;&gt;&lt;sub&gt;0,0&lt;/sub&gt;&lt;/span&gt;" style="text;html=1;align=center;verticalAlign=middle;resizable=1;points=[];autosize=1;strokeColor=none;fillColor=none;" parent="1" vertex="1">
          <mxGeometry x="245" y="95" width="40" height="30" as="geometry" />
        </mxCell>
        <mxCell id="LD_RKNu__p31QmjTdJs5-61" value="P&lt;span style=&quot;font-size: 10px;&quot;&gt;&lt;sub&gt;0,1&lt;/sub&gt;&lt;/span&gt;" style="text;html=1;align=center;verticalAlign=middle;resizable=1;points=[];autosize=1;strokeColor=none;fillColor=none;" parent="1" vertex="1">
          <mxGeometry x="245" y="200.5" width="40" height="30" as="geometry" />
        </mxCell>
        <mxCell id="LD_RKNu__p31QmjTdJs5-62" value="" style="pointerEvents=1;verticalLabelPosition=bottom;shadow=0;dashed=0;align=center;html=1;verticalAlign=top;shape=mxgraph.electrical.miscellaneous.light_bulb;direction=south;" parent="1" vertex="1">
          <mxGeometry x="560" y="140" width="20" height="20.5" as="geometry" />
        </mxCell>
        <mxCell id="LD_RKNu__p31QmjTdJs5-65" value="V&lt;sub&gt;dd&lt;/sub&gt;" style="verticalLabelPosition=top;verticalAlign=bottom;shape=mxgraph.electrical.signal_sources.vdd;shadow=0;dashed=0;align=center;strokeWidth=1;fontSize=24;html=1;flipV=1;noLabel=1;" parent="1" vertex="1">
          <mxGeometry x="520" y="160" width="20" height="10" as="geometry" />
        </mxCell>
        <mxCell id="LD_RKNu__p31QmjTdJs5-69" value="" style="pointerEvents=1;verticalLabelPosition=bottom;shadow=0;dashed=0;align=center;html=1;verticalAlign=top;shape=mxgraph.electrical.signal_sources.protective_earth;fontFamily=Helvetica;fontSize=12;fontColor=default;autosize=1;resizable=1;fillColor=none;gradientColor=none;" parent="1" vertex="1">
          <mxGeometry x="517.5" y="270.5" width="25" height="20" as="geometry" />
        </mxCell>
        <mxCell id="LD_RKNu__p31QmjTdJs5-71" value="V&lt;span style=&quot;font-size: 10px;&quot;&gt;&lt;sub&gt;dd&lt;/sub&gt;&lt;/span&gt;" style="text;html=1;align=center;verticalAlign=middle;resizable=1;points=[];autosize=1;strokeColor=none;fillColor=none;" parent="1" vertex="1">
          <mxGeometry x="508" y="135.25" width="40" height="30" as="geometry" />
        </mxCell>
        <mxCell id="LD_RKNu__p31QmjTdJs5-72" value="" style="verticalLabelPosition=bottom;shadow=0;dashed=0;align=center;html=1;verticalAlign=top;shape=mxgraph.electrical.opto_electronics.opto-coupler;aspect=fixed;flipV=0;flipH=1;" parent="1" vertex="1">
          <mxGeometry x="517" y="230.5" width="65" height="40" as="geometry" />
        </mxCell>
        <mxCell id="LD_RKNu__p31QmjTdJs5-78" value="" style="pointerEvents=1;verticalLabelPosition=bottom;shadow=0;dashed=0;align=center;html=1;verticalAlign=top;shape=mxgraph.electrical.resistors.resistor_2;direction=south;" parent="1" vertex="1">
          <mxGeometry x="565" y="160.5" width="10" height="60" as="geometry" />
        </mxCell>
        <mxCell id="LD_RKNu__p31QmjTdJs5-79" value="" style="endArrow=none;html=1;rounded=0;entryX=0;entryY=0.8;entryDx=0;entryDy=0;" parent="1" target="LD_RKNu__p31QmjTdJs5-35" edge="1">
          <mxGeometry width="50" height="50" relative="1" as="geometry">
            <mxPoint x="570" y="140" as="sourcePoint" />
            <mxPoint x="623" y="99.75" as="targetPoint" />
          </mxGeometry>
        </mxCell>
        <mxCell id="LD_RKNu__p31QmjTdJs5-80" value="" style="pointerEvents=1;verticalLabelPosition=bottom;shadow=0;dashed=0;align=center;html=1;verticalAlign=top;shape=mxgraph.electrical.signal_sources.protective_earth;fontFamily=Helvetica;fontSize=12;fontColor=default;autosize=1;resizable=1;fillColor=none;gradientColor=none;" parent="1" vertex="1">
          <mxGeometry x="557" y="270.5" width="25" height="20" as="geometry" />
        </mxCell>
        <mxCell id="LD_RKNu__p31QmjTdJs5-81" value="" style="pointerEvents=1;verticalLabelPosition=bottom;shadow=0;dashed=0;align=center;html=1;verticalAlign=top;shape=mxgraph.electrical.signal_sources.protective_earth;fontFamily=Helvetica;fontSize=12;fontColor=default;autosize=1;resizable=1;fillColor=none;gradientColor=none;" parent="1" vertex="1">
          <mxGeometry x="398" y="140" width="25" height="20" as="geometry" />
        </mxCell>
        <mxCell id="LD_RKNu__p31QmjTdJs5-82" value="GND" style="text;html=1;align=center;verticalAlign=middle;resizable=0;points=[];autosize=1;strokeColor=none;fillColor=none;" parent="1" vertex="1">
          <mxGeometry x="480" y="270.5" width="50" height="30" as="geometry" />
        </mxCell>
        <mxCell id="LD_RKNu__p31QmjTdJs5-83" value="" style="endArrow=none;html=1;rounded=0;entryX=1;entryY=0.5;entryDx=0;entryDy=0;entryPerimeter=0;exitX=0.8;exitY=0;exitDx=0;exitDy=0;exitPerimeter=0;" parent="1" source="LD_RKNu__p31QmjTdJs5-72" target="LD_RKNu__p31QmjTdJs5-34" edge="1">
          <mxGeometry width="50" height="50" relative="1" as="geometry">
            <mxPoint x="500" y="230" as="sourcePoint" />
            <mxPoint x="550" y="180" as="targetPoint" />
          </mxGeometry>
        </mxCell>
        <mxCell id="LD_RKNu__p31QmjTdJs5-84" value="" style="endArrow=none;html=1;rounded=0;entryX=1;entryY=0.5;entryDx=0;entryDy=0;entryPerimeter=0;" parent="1" target="LD_RKNu__p31QmjTdJs5-78" edge="1">
          <mxGeometry width="50" height="50" relative="1" as="geometry">
            <mxPoint x="570" y="230" as="sourcePoint" />
            <mxPoint x="550" y="180" as="targetPoint" />
          </mxGeometry>
        </mxCell>
        <mxCell id="LD_RKNu__p31QmjTdJs5-85" value="GND&lt;sub&gt;2&lt;/sub&gt;" style="text;html=1;align=center;verticalAlign=middle;resizable=0;points=[];autosize=1;strokeColor=none;fillColor=none;" parent="1" vertex="1">
          <mxGeometry x="566" y="270.5" width="60" height="30" as="geometry" />
        </mxCell>
      </root>
    </mxGraphModel>
  </diagram>
</mxfile>
